<svg id="Capa_1" enable-background="new 0 0 512 512" height="60" viewBox="0 0 512 512" width="80" xmlns="http://www.w3.org/2000/svg"><g><path d="m487.724 369.833-1.113-12.568c-2.9-32.563-31.494-69.053-72.876-92.959-3.014-1.74-6.053-2.979-9.082-4.526l-33.653-30.078-64.999-.149-25.79 29.941c-2.926 2.981-5.748 6.064-7.877 9.749-21.954 37.916 22.403 99.525 66.401 124.98 33.968 19.594 82.429 32.633 116.938 16.626l11.44-5.303-7.544-28.184z" fill="#c567ea"/><path d="m256 278.69c-43.834 0-75 69.247-75 120 0 46.216 16.479 86.664 44.063 106.059l10.311 7.251 20.626-20.625 20.624 20.625 10.313-7.251c27.584-19.395 44.063-59.843 44.063-106.059 0-67.294-32.944-120-75-120z" fill="#c567ea"/><path d="m286.938 504.749c27.583-19.395 44.062-59.843 44.062-106.059 0-67.295-32.944-120-75-120v212.685l20.624 20.625z" fill="#a24bdb"/><path d="m239.682 269.271c-21.781-37.799-97.232-30.458-141.416-4.966-41.382 23.906-69.976 60.396-72.876 92.959l-1.113 12.568 28.154 7.529-7.544 28.184 11.44 5.303c34.661 16.077 83.255 2.805 116.938-16.626 58.257-33.647 87.437-88.534 66.417-124.951z" fill="#e681fa"/><path d="m173.266 125.468c-41.382-23.877-87.29-30.41-116.938-16.641l-11.44 5.303 7.544 28.184-28.154 7.559 1.113 12.554c2.9 32.578 31.509 69.067 72.876 92.944 45.44 26.235 116.058 39.008 141.401-4.937 21.909-37.84-22.352-99.489-66.402-124.966z" fill="#c567ea"/><path d="m286.938 7.251-10.314-7.251-20.624 20.625-20.626-20.625-10.312 7.251c-26.352 18.53-44.062 64.926-44.062 113.749 0 67.295 32.944 120 75 120 43.713 0 75-69.049 75-120 0-48.823-17.71-95.219-44.062-113.749z" fill="#e681fa"/><path d="m331 121c0-48.823-17.71-95.219-44.063-113.749l-10.313-7.251-20.624 20.625v220.375c43.713 0 75-69.049 75-120z" fill="#c567ea"/><path d="m404.652 259.779c3.04-1.469 6.281-2.789 9.082-4.409 41.367-23.877 69.976-60.366 72.876-92.944l1.113-12.554-28.154-7.559 7.544-28.184-11.44-5.303c-29.648-13.755-75.542-7.266-116.938 16.641-45.471 26.252-91.791 80.993-66.416 124.937 2.045 3.55 4.98 6.313 7.892 9.089 24.473-24.935 74.88-25.045 124.441.286z" fill="#a24bdb"/></g></svg>